<svg width="30" height="30" viewBox="0 0 30 30" fill="none" xmlns="http://www.w3.org/2000/svg">
<path fill-rule="evenodd" clip-rule="evenodd" d="M23.4852 6.81453C18.9756 7.22901 13.1748 8.9516 7.45488 11.5749C5.28565 12.5697 2.1866 14.2506 0.192722 15.5137C-0.0832874 15.6885 -0.0591903 15.7337 0.241636 15.6055C1.44052 15.095 4.3732 14.3395 6.55662 13.9789C8.65556 13.6322 9.8507 13.5238 11.6166 13.5203C13.0602 13.5173 13.7934 13.5727 14.6932 13.7526C19.1835 14.6502 19.5778 17.717 15.8462 22.7197C15.6534 22.978 15.4957 23.2049 15.4957 23.2239C15.4957 23.2691 18.0735 21.5281 19.3217 20.6398C25.9923 15.8931 29.6333 12.1391 29.9747 9.65617C30.1733 8.21159 29.1997 7.25372 27.1588 6.8859C26.5837 6.78222 24.3161 6.73818 23.4852 6.81453Z" fill="#FF9801"/>
</svg>
